<?xml version="1.0" encoding="iso-8859-1"?>
<!-- Generator: Adobe Illustrator 19.0.0, SVG Export Plug-In . SVG Version: 6.00 Build 0)  -->
<svg version="1.1" id="Layer_1"
	xmlns="http://www.w3.org/2000/svg"
	xmlns:xlink="http://www.w3.org/1999/xlink" x="0px" y="0px" viewBox="0 0 330 330" style="enable-background:new 0 0 330 330;" xml:space="preserve">
	<path id="XMLID_108_" d="M325.607,304.394L270,248.787v-114.52c0-52.805-39.184-96.623-90-103.923V20.001c0-8.284-6.716-15-15-15
	s-15,6.716-15,15v10.343c-25.284,3.633-47.686,16.304-63.815,34.628L25.607,4.394c-5.857-5.858-15.355-5.858-21.213,0
	c-5.858,5.858-5.858,15.355,0,21.213l65.085,65.085C63.397,103.973,60,118.73,60,134.267v130.734h-5c-8.284,0-15,6.716-15,15
	c0,8.284,6.716,15,15,15h67.58C128.773,312.459,145.445,325,165,325s36.228-12.541,42.42-29.999h66.367l30.607,30.606
	C307.323,328.536,311.161,330,315,330c3.839,0,7.678-1.464,10.606-4.394C331.465,319.749,331.465,310.252,325.607,304.394z
	 M165,59.267c41.355,0,75,33.645,75,75v84.52L107.451,86.238C121.219,69.768,141.904,59.267,165,59.267z M90,134.267
	c0-7.018,0.99-13.805,2.801-20.252L240,261.213v3.788H90V134.267z"/>
</svg>
