<?xml version="1.0" encoding="iso-8859-1"?>
<!-- Generator: Adobe Illustrator 19.0.0, SVG Export Plug-In . SVG Version: 6.00 Build 0)  -->
<svg version="1.1" id="Capa_1"
	xmlns="http://www.w3.org/2000/svg"
	xmlns:xlink="http://www.w3.org/1999/xlink" x="0px" y="0px"
    viewBox="0 0 512 512" style="enable-background:new 0 0 512 512;" xml:space="preserve">
    <path
       d="m 337.22464,151.34858 c -6.83396,-6.06427 -17.28838,-5.4412 -23.35263,1.39282 -6.06421,6.83289 -5.44113,17.28839 1.39282,23.35259 19.10467,16.95536 30.06196,41.31592 30.06196,66.83661 0,49.25487 -40.07085,89.32572 -89.32571,89.32572 -49.25485,0 -89.32571,-40.07085 -89.32571,-89.32572 0,-25.77323 11.13926,-50.29369 30.56044,-67.2755 6.87698,-6.01348 7.57833,-16.46352 1.56372,-23.34158 -6.01348,-6.87812 -16.46348,-7.57727 -23.34157,-1.56375 -26.60693,23.26438 -41.86727,56.86298 -41.86727,92.18083 0,67.49714 54.91215,122.40931 122.40931,122.40931 67.49711,0 122.4093,-54.91217 122.4093,-122.40931 6.7e-4,-34.97378 -15.01005,-68.35293 -41.18466,-91.58202 z"
       id="path23"
       style="stroke-width:1.10279" />
</svg>
