<?xml version="1.0" encoding="iso-8859-1"?>
<!-- Generator: Adobe Illustrator 19.0.0, SVG Export Plug-In . SVG Version: 6.00 Build 0)  -->
<svg version="1.1" id="Capa_1"
	xmlns="http://www.w3.org/2000/svg"
	xmlns:xlink="http://www.w3.org/1999/xlink" x="0px" y="0px" viewBox="0 0 512 512" style="enable-background:new 0 0 512 512;" xml:space="preserve">
<g
   id="g162"
   transform="matrix(0.8956874,0,0,0.8956874,26.703578,26.702682)"><g
     id="g105">
	<g
   id="g103">
		<path
   d="M 473.043,68.045 V 50.087 C 473.043,22.469 450.574,0 422.957,0 410.138,0 398.434,4.846 389.566,12.794 380.696,4.846 368.993,0 356.174,0 328.556,0 306.087,22.469 306.087,50.087 V 66.783 H 205.913 V 50.087 C 205.913,22.469 183.444,0 155.826,0 143.007,0 131.303,4.846 122.435,12.794 113.566,4.846 101.862,0 89.044,0 61.426,0 38.957,22.469 38.957,50.087 V 68.045 C 16.68,73.121 0,93.077 0,116.87 c 0,27.618 22.469,50.087 50.087,50.087 h 65.432 l 90.394,90.394 v 43.172 h -16.696 c -9.22,0 -16.696,7.475 -16.696,16.696 0,9.221 7.475,16.696 16.696,16.696 h 16.696 v 33.391 h -16.696 c -9.22,0 -16.696,7.475 -16.696,16.696 0,9.221 7.475,16.696 16.696,16.696 h 16.696 v 94.609 c 0,9.22 7.475,16.696 16.696,16.696 h 66.783 c 9.22,0 16.696,-7.475 16.696,-16.696 v -94.609 h 16.696 c 9.22,0 16.696,-7.475 16.696,-16.696 0,-9.221 -7.475,-16.696 -16.696,-16.696 h -16.696 v -33.391 h 16.696 c 9.22,0 16.696,-7.475 16.696,-16.696 0,-9.221 -7.475,-16.696 -16.696,-16.696 H 306.088 V 257.35 l 90.394,-90.394 h 65.432 c 27.618,0 50.087,-22.469 50.087,-50.087 C 512,93.077 495.32,73.121 473.043,68.045 Z M 406.261,50.087 c 0,-9.206 7.49,-16.696 16.696,-16.696 9.206,0 16.696,7.49 16.696,16.696 V 66.783 H 406.262 V 50.087 Z m -66.783,0 c 0,-9.206 7.49,-16.696 16.696,-16.696 9.206,0 16.696,7.49 16.696,16.696 V 66.783 H 339.479 V 50.087 Z m -200.348,0 c 0,-9.206 7.49,-16.696 16.696,-16.696 9.206,0 16.696,7.49 16.696,16.696 V 66.783 H 139.13 Z m -66.782,0 c 0,-9.206 7.49,-16.696 16.696,-16.696 9.206,0 16.696,7.49 16.696,16.696 V 66.783 H 72.348 Z m 200.348,428.522 h -33.391 v -77.913 h 33.391 z m 0,-111.305 h -33.391 v -33.391 h 33.391 z m 0,-66.782 H 239.305 V 267.13 h 33.391 z m 9.78,-66.783 H 229.524 L 162.741,166.956 H 349.258 Z M 461.913,133.565 H 50.087 c -9.206,0 -16.696,-7.49 -16.696,-16.696 0,-9.206 7.49,-16.696 16.696,-16.696 10.883,0 401.634,0 411.826,0 9.206,0 16.696,7.49 16.696,16.696 0,9.206 -7.49,16.696 -16.696,16.696 z"
   id="path101" />
	</g>
</g><g
     id="g107">
</g><g
     id="g109">
</g><g
     id="g111">
</g><g
     id="g113">
</g><g
     id="g115">
</g><g
     id="g117">
</g><g
     id="g119">
</g><g
     id="g121">
</g><g
     id="g123">
</g><g
     id="g125">
</g><g
     id="g127">
</g><g
     id="g129">
</g><g
     id="g131">
</g><g
     id="g133">
</g><g
     id="g135">
</g></g><rect
   style="fill:#000000;fill-opacity:1;fill-rule:evenodd;stroke-width:7.73523"
   id="rect172"
   width="664.01239"
   height="28.946157"
   x="29.981188"
   y="-8.3793201"
   ry="14.473079"
   transform="rotate(44.035564)" /></svg>
