<?xml version="1.0" encoding="iso-8859-1"?>
<!-- Generator: Adobe Illustrator 19.0.0, SVG Export Plug-In . SVG Version: 6.00 Build 0)  -->
<svg version="1.1" id="Capa_1"
    xmlns="http://www.w3.org/2000/svg"
    xmlns:xlink="http://www.w3.org/1999/xlink" x="0px" y="0px" viewBox="0 0 512 512" style="enable-background:new 0 0 512 512;" xml:space="preserve">
    <g>
        <circle cx="196" cy="75" r="15"/>
        <circle cx="316" cy="75" r="15"/>
        <circle cx="256" cy="75" r="15"/>
        <circle cx="196" cy="135" r="15"/>
        <circle cx="316" cy="135" r="15"/>
        <circle cx="256" cy="135" r="15"/>
        <circle cx="196" cy="195" r="15"/>
        <circle cx="316" cy="195" r="15"/>
        <circle cx="256" cy="195" r="15"/>
        <circle cx="196" cy="315" r="15"/>
        <circle cx="316" cy="315" r="15"/>
        <circle cx="256" cy="315" r="15"/>
        <circle cx="196" cy="375" r="15"/>
        <circle cx="316" cy="375" r="15"/>
        <circle cx="256" cy="375" r="15"/>
        <circle cx="196" cy="255" r="15"/>
        <circle cx="316" cy="255" r="15"/>
        <circle cx="256" cy="255" r="15"/>
        <circle cx="436" cy="195" r="15"/>
        <circle cx="436" cy="255" r="15"/>
        <path d="m496 120h-105v-105c0-8.284-6.716-15-15-15h-240c-8.284 0-15 6.716-15 15v105h-105c-8.284 0-15 6.716-15 15v362c0 8.284 6.716 15 15 15h480c8.284 0 15-6.716 15-15v-362c0-8.284-6.716-15-15-15zm-375 362h-30v-47c0-8.284-6.716-15-15-15s-15 6.716-15 15v47h-30v-332h90zm120 0h-30v-32h30zm60 0h-30v-32h30zm60 0h-30v-47c0-8.284-6.716-15-15-15h-120c-8.284 0-15 6.716-15 15v47h-30v-452h210zm120 0h-30v-47c0-8.284-6.716-15-15-15s-15 6.716-15 15v47h-30v-332h90z"/>
        <circle cx="436" cy="315" r="15"/>
        <circle cx="436" cy="375" r="15"/>
        <circle cx="76" cy="195" r="15"/>
        <circle cx="76" cy="255" r="15"/>
        <circle cx="76" cy="315" r="15"/>
        <circle cx="76" cy="375" r="15"/>
    </g>
</svg>