<?xml version="1.0" encoding="iso-8859-1"?>
<!-- Generator: Adobe Illustrator 19.0.0, SVG Export Plug-In . SVG Version: 6.00 Build 0)  -->
<svg version="1.1" id="Capa_1"
    xmlns="http://www.w3.org/2000/svg"
    xmlns:xlink="http://www.w3.org/1999/xlink" x="0px" y="0px" viewBox="0 0 512 512" style="enable-background:new 0 0 512 512;" xml:space="preserve">
    <g>
        <path d="m368.467 241h-59.403l25.808-110.11c1.431-6.104-1.085-12.452-6.308-15.919-5.223-3.468-12.051-3.32-17.119.365l-176.735 128.533c-5.254 3.821-7.451 10.591-5.442 16.77s7.768 10.361 14.265 10.361h59.403l-25.808 110.11c-1.43 6.104 1.085 12.452 6.308 15.919.199.132 8.548 5.868 17.12-.365l176.733-128.533c5.255-3.821 7.451-10.591 5.442-16.77s-7.767-10.361-14.264-10.361zm-152.921 107.668 20.917-89.245c1.045-4.459-.004-9.151-2.849-12.741-2.846-3.589-7.175-5.682-11.755-5.682h-32.197l106.793-77.668-20.917 89.245c-1.045 4.459.005 9.151 2.85 12.741 2.846 3.589 7.175 5.682 11.755 5.682h32.197z"/>
        <path d="m289.696 34.65 9.044-9.044c5.858-5.857 5.858-15.355 0-21.213-5.857-5.857-15.355-5.857-21.213 0l-32.134 32.134c-2.813 2.812-4.393 6.628-4.393 10.606s1.581 7.794 4.394 10.606l32.134 32.133c5.857 5.856 15.353 5.86 21.213 0 5.858-5.858 5.858-15.355 0-21.213l-2.267-2.267c87.533 18.66 153.392 96.576 153.392 189.608 0 8.284 6.716 14.992 15 14.992s15-6.724 15-15.008c0-112.341-82.507-205.116-190.17-221.334z"/>
        <path d="m234.472 422.127c-5.857-5.856-15.353-5.86-21.213 0-5.858 5.858-5.858 15.355 0 21.213l2.267 2.267c-87.534-18.66-153.393-96.576-153.393-189.607 0-8.284-6.716-14.992-15-14.992s-15 6.724-15 15.008c0 112.341 82.507 205.116 190.17 221.333l-9.044 9.044c-5.858 5.857-5.858 15.355 0 21.213 5.857 5.857 15.355 5.857 21.213 0l32.134-32.134c2.813-2.813 4.394-6.628 4.394-10.606s-1.581-7.794-4.394-10.606z"/>
    </g>
</svg>