<?xml version="1.0" encoding="iso-8859-1"?>
<!-- Generator: Adobe Illustrator 19.0.0, SVG Export Plug-In . SVG Version: 6.00 Build 0)  -->
<svg version="1.1" id="Capa_1"
    xmlns="http://www.w3.org/2000/svg"
    xmlns:xlink="http://www.w3.org/1999/xlink" x="0px" y="0px" viewBox="0 0 512 512" style="enable-background:new 0 0 512 512;" xml:space="preserve">
    <path d="m75 210c8.289062 0 15-6.710938 15-15s-6.710938-15-15-15h-60c-8.289062 0-15 6.710938-15 15s6.710938 15 15 15h15v45c0 5.585938 4.273438 11.054688 7.28125 12.859375l101.765625 61.0625-16.792969 92.367187c-35.273437 6.09375-62.253906 38.722657-62.253906 75.710938 0 8.289062 6.710938 15 15 15h330c8.289062 0 15-6.710938 15-15 0-36.988281-26.980469-69.617188-62.253906-75.710938l-16.792969-92.367187 101.765625-61.0625c4.269531-2.558594 7.28125-8.789063 7.28125-12.859375v-45h15c8.289062 0 15-6.710938 15-15s-6.710938-15-15-15h-60c-8.289062 0-15 6.710938-15 15s6.710938 15 15 15h15v30h-95.21875l-10.964844-60.324219 99.136719-61.960937c2.878906-3.003906 7.046875-5.472656 7.046875-12.714844v-45h15c8.289062 0 15-6.710938 15-15s-6.710938-15-15-15h-60c-8.289062 0-15 6.710938-15 15s6.710938 15 15 15h15v30h-90v-60h15c8.289062 0 15-6.710938 15-15s-6.710938-15-15-15h-150c-8.289062 0-15 6.710938-15 15s6.710938 15 15 15h15v60h-90v-30h15c8.289062 0 15-6.710938 15-15s-6.710938-15-15-15h-60c-8.289062 0-15 6.710938-15 15s6.710938 15 15 15h15v45c0 5.0625 3.558594 10.546875 7.046875 12.714844l99.136719 61.960937-10.964844 60.324219h-95.21875v-30zm305.84375 60-45.625 27.378906-4.980469-27.378906zm-191.6875 150 50.84375-30.507812 50.84375 30.507812zm135.167969-14.898438-55.167969-33.101562 44.316406-26.589844zm28.375-285.101562-44.660157 27.914062-5.074218-27.914062zm-61.597657 102.375-22.800781-14.253906 18.148438-11.339844zm-81.101562-192.375h60v60h-60zm-2.488281 90h64.976562l8.1875 45.019531-40.671875 25.417969-40.675781-25.425781zm55.1875 120h-45.402344l22.703125-14.1875zm-69.148438-43.21875 18.152344 11.34375-22.804687 14.253906zm-13.3125 73.21875h119.523438l7.972656 43.863281-67.730469 40.644531-67.738281-40.644531zm-52.929687-150h49.726562l-5.074218 27.90625zm39.21875 225.410156 44.316406 26.589844-55.167969 33.101562zm-16.765625-75.410156-4.976563 27.375-45.625-27.375zm0 0"/>
</svg>