<?xml version="1.0" encoding="iso-8859-1"?>
<!-- Generator: Adobe Illustrator 19.0.0, SVG Export Plug-In . SVG Version: 6.00 Build 0)  -->
<svg version="1.1" id="Capa_1"
	xmlns="http://www.w3.org/2000/svg"
	xmlns:xlink="http://www.w3.org/1999/xlink" x="0px" y="0px" viewBox="0 0 512 512" style="enable-background:new 0 0 512 512;" xml:space="preserve">
	<g>
		<rect x="69.63" y="79.987" style="fill:#FFD347;" width="41.416" height="31.059"/>
		<rect x="400.944" y="79.987" style="fill:#FFD347;" width="41.416" height="31.059"/>
		<rect x="69.63" y="204.234" style="fill:#FFD347;" width="41.416" height="31.059"/>
		<rect x="400.944" y="204.234" style="fill:#FFD347;" width="41.416" height="31.059"/>
	</g>
	<rect x="111.045" y="473.43" style="fill:#A8D3D6;" width="289.899" height="31.059"/>
	<rect x="369.885" y="473.43" style="fill:#84AFB4;" width="31.059" height="31.059"/>
	<path d="M465.136,165.947L325.632,126.09v-69.65h88.512v16.035H400.95c-4.149,0-7.512,3.362-7.512,7.512v31.062
	c0,4.15,3.363,7.512,7.512,7.512h41.415c4.149,0,7.512-3.362,7.512-7.512V79.987c0-4.15-3.363-7.512-7.512-7.512h-13.197V56.438
	h33.905c3.746,0,6.92-2.76,7.439-6.47c0.52-3.71-1.774-7.235-5.376-8.265L320.183,0.288c-0.068-0.019-0.135-0.03-0.203-0.047
	c-0.152-0.039-0.305-0.077-0.462-0.106c-0.113-0.021-0.226-0.036-0.34-0.052c-0.129-0.018-0.257-0.038-0.389-0.049
	c-0.144-0.013-0.286-0.017-0.431-0.022C318.279,0.01,318.201,0,318.12,0H193.878c-0.076,0-0.15,0.009-0.226,0.011
	c-0.149,0.005-0.298,0.009-0.449,0.023c-0.126,0.011-0.249,0.03-0.373,0.047c-0.118,0.017-0.236,0.032-0.355,0.054
	c-0.153,0.029-0.302,0.066-0.452,0.104c-0.07,0.018-0.14,0.029-0.21,0.049L46.863,41.703c-3.602,1.03-5.895,4.555-5.376,8.265
	c0.52,3.71,3.694,6.47,7.44,6.47h33.903v16.036H69.634c-4.149,0-7.512,3.362-7.512,7.512v31.062c0,4.15,3.363,7.512,7.512,7.512
	h41.415c4.149,0,7.512-3.362,7.512-7.512V79.987c0-4.15-3.363-7.512-7.512-7.512H97.852V56.438h49.756
	c4.149,0,7.512-3.363,7.512-7.512c0-4.15-3.363-7.512-7.512-7.512h-45.046l83.804-23.943v23.943h-5.268
	c-4.149,0-7.512,3.362-7.512,7.512c0,4.149,3.363,7.512,7.512,7.512h5.268v69.65L46.863,165.947
	c-3.602,1.03-5.895,4.555-5.376,8.265c0.52,3.71,3.694,6.47,7.44,6.47h33.903v16.036H69.634c-4.149,0-7.512,3.362-7.512,7.512
	v31.062c0,4.15,3.363,7.512,7.512,7.512h41.415c4.149,0,7.512-3.362,7.512-7.512v-31.062c0-4.15-3.363-7.512-7.512-7.512H97.852
	v-16.036h88.514v74.266l-30.723,107.526c-0.001,0.005-0.003,0.009-0.004,0.014l-0.06,0.209c-0.001,0.003-0.002,0.007-0.003,0.01
	l-0.014,0.049c-0.002,0.009-0.005,0.018-0.008,0.026l-29.467,103.13h-15.041c-4.149,0-7.512,3.362-7.512,7.512v23.551H88.184
	c-4.149,0-7.512,3.362-7.512,7.512S84.035,512,88.184,512h22.864h289.904h22.862c4.149,0,7.512-3.362,7.512-7.512
	s-3.363-7.512-7.512-7.512h-15.35v-23.551c0-4.15-3.363-7.512-7.512-7.512h-15.042L356.446,362.79
	c-0.004-0.016-0.009-0.031-0.013-0.047l-0.068-0.238c-0.004-0.012-0.007-0.025-0.011-0.037l-30.721-107.52v-74.266h88.512v16.036
	h-13.194c-4.149,0-7.512,3.362-7.512,7.512v31.062c0,4.15,3.363,7.512,7.512,7.512h41.415c4.149,0,7.512-3.362,7.512-7.512V204.23
	c0-4.15-3.363-7.512-7.512-7.512h-13.197v-16.036h33.905c3.746,0,6.92-2.76,7.44-6.47
	C471.031,170.502,468.738,166.977,465.136,165.947z M434.853,103.537h-26.391V87.499h26.391V103.537z M103.537,103.537H77.145
	V87.499h26.391L103.537,103.537L103.537,103.537z M103.537,227.78H77.145v-16.038h26.391L103.537,227.78L103.537,227.78z
	 M434.853,227.78h-26.391v-16.038h26.391V227.78z M198.205,268.198l44.695,31.286l-67.042,46.928L198.205,268.198z M217.709,263.511
	h76.58l-38.291,26.802L217.709,263.511z M186.648,357.199L256,308.653l69.352,48.546H186.648z M317.362,372.223L256,402.904
	l-61.363-30.682H317.362z M167.554,375.478l71.65,35.825l-95.533,47.767L167.554,375.478z M256,419.701l92.424,46.212H163.575
	L256,419.701z M272.796,411.303l71.65-35.825l23.884,83.591L272.796,411.303z M269.099,299.483l44.695-31.286l22.348,78.215
	L269.099,299.483z M201.39,248.488v-61.282l91.923,61.282H201.39z M201.39,62.963l91.92,61.28h-91.92V62.963z M201.39,139.267
	h109.218v26.392H201.39V139.267z M310.608,117.719l-91.922-61.281h91.922V117.719z M325.632,41.415V17.471l83.804,23.943
	L325.632,41.415L325.632,41.415z M310.608,15.024v26.391H201.39V15.024H310.608z M186.367,141.713v23.945h-83.805L186.367,141.713z
	 M393.44,496.976H118.561v-16.039h13.171c0.01,0,0.02,0.002,0.029,0.002c0.012,0,0.024-0.002,0.035-0.002h0.105
	c0.014-0.001,0.029,0,0.043,0h248.258c0.012,0,0.024,0.002,0.035,0.002h0.001h0.001c0.01,0,0.019-0.002,0.029-0.002h13.172
	L393.44,496.976L393.44,496.976z M310.608,241.961l-91.921-61.28h91.921V241.961z M325.632,165.657v-23.945l83.805,23.945H325.632z" />

</svg>
